<?xml version="1.0" encoding="UTF-8" standalone="no"?>
<svg width="800" height="800" viewBox="0 0 512 512" xmlns="http://www.w3.org/2000/svg">
  <defs>
    <linearGradient id="grad" x1="0%" y1="0%" x2="100%" y2="100%">
      <stop offset="0%" style="stop-color:#6a5cff"/>
      <stop offset="100%" style="stop-color:#ff6ec7"/>
    </linearGradient>
  </defs>

  <!-- Soft circular background for logo -->
  <circle cx="256" cy="256" r="220" fill="url(#grad)"/>

  <!-- Lotus -->
  <g fill="none" stroke="#ffffff" stroke-width="7" opacity="0.95">
    <path d="M170 260 C140 220, 140 170, 200 150 C210 200, 200 230, 170 260 Z"/>
    <path d="M200 270 C180 210, 210 150, 256 130 C290 170, 260 240, 200 270 Z"/>
    <path d="M240 260 C260 210, 310 180, 340 190 C320 240, 280 270, 240 260 Z"/>
  </g>

  <!-- Face outline -->
  <path d="M300 140 
           C340 160, 360 200, 350 240
           C345 260, 330 270, 320 285
           C310 300, 315 320, 295 340
           C270 365, 235 360, 225 330"
        fill="none" stroke="#ffffff" stroke-width="7" opacity="0.98"/>

  <!-- Star -->
  <polygon points="330,170 338,188 358,190 342,202 347,222 330,210 313,222 318,202 302,190 322,188"
           fill="#ffffff" opacity="0.9"/>
</svg>
